<?xml version="1.0" encoding="UTF-8"?>
<svg width="380px" height="198px" viewBox="0 0 380 198" version="1.1" xmlns="http://www.w3.org/2000/svg" xmlns:xlink="http://www.w3.org/1999/xlink">
    <title>编组</title>
    <g id="页面-1" stroke="none" stroke-width="1" fill="none" fill-rule="evenodd">
        <g id="编组">
            <polygon id="Fill-1" fill="#DDDDDD" points="0 198 380 198 380 0 0 0"></polygon>
            <g transform="translate(12.000000, 12.000000)">
                <path d="M133.454577,67.3301765 C122.400554,67.3301765 113.438178,76.3322941 113.438178,87.4374706 C113.438178,98.5405098 122.400554,107.542627 133.454577,107.542627 C144.510727,107.542627 153.473103,98.5405098 153.473103,87.4374706 C153.473103,76.3322941 144.510727,67.3301765 133.454577,67.3301765 L133.454577,67.3301765 Z M133.454577,100.562353 C126.234885,100.562353 120.385509,94.6870392 120.385509,87.4374706 C120.385509,80.187902 126.234885,74.3125882 133.454577,74.3125882 C140.674268,74.3125882 146.523644,80.187902 146.523644,87.4374706 C146.523644,94.6870392 140.674268,100.562353 133.454577,100.562353 L133.454577,100.562353 Z M221.616524,67.3301765 C210.560374,67.3301765 201.600126,76.3322941 201.600126,87.4374706 C201.600126,98.5405098 210.560374,107.542627 221.616524,107.542627 C232.674802,107.542627 241.63505,98.5405098 241.63505,87.4374706 C241.63505,76.3322941 232.674802,67.3301765 221.616524,67.3301765 L221.616524,67.3301765 Z M221.616524,100.562353 C214.403216,100.562353 208.549584,94.6870392 208.549584,87.4374706 C208.549584,80.187902 214.403216,74.3125882 221.616524,74.3125882 C228.836216,74.3125882 234.685592,80.187902 234.685592,87.4374706 C234.685592,94.6870392 228.836216,100.562353 221.616524,100.562353 L221.616524,100.562353 Z M269.615877,92.7699216 C274.739667,91.1306471 278.452712,86.3111373 278.452712,80.6196275 C278.452712,73.5901961 272.786329,67.888 265.792186,67.8687647 L251.016607,67.8687647 L251.016607,107.057471 L257.968193,107.057471 L257.968193,89.6196078 L272.445877,107.057471 L281.474216,107.057471 L269.615877,92.7699216 Z M265.702817,86.3902157 L257.968193,86.3902157 L257.968193,74.8511765 L265.707073,74.8511765 C268.879652,74.8511765 271.450058,77.4351176 271.450058,80.6196275 C271.450058,83.8062745 268.877524,86.3902157 265.702817,86.3902157 L265.702817,86.3902157 Z M185.271238,92.2078235 L168.395502,67.7512157 L162.854659,67.7512157 L162.854659,106.939922 L169.804118,106.939922 L169.804118,82.3636275 L186.760712,106.939922 L192.220697,106.939922 L192.220697,67.7512157 L185.271238,67.7512157 L185.271238,92.2078235 Z" id="Fill-2" fill="#00A6FF"></path>
                <polygon id="Fill-4" fill="#00A6FF" points="97.1050353 83.7530569 81.6421707 83.7530569 81.6421707 67.8668412 74.692712 67.8668412 74.692712 107.057684 81.6421707 107.057684 81.6421707 90.7354686 97.1050353 90.7354686 97.1050353 107.057684 104.056622 107.057684 104.056622 67.8668412 97.1050353 67.8668412"></polygon>
                <path d="M24.5504316,12.2907333 C24.5504316,18.9824784 19.1478977,24.4068314 12.4878226,24.4068314 C5.82561955,24.4068314 0.425213534,18.9824784 0.425213534,12.2907333 C0.425213534,5.59898824 5.82561955,0.174635294 12.4878226,0.174635294 C19.1478977,0.174635294 24.5504316,5.59898824 24.5504316,12.2907333" id="Fill-6" fill="#FF0045"></path>
                <line x1="18.2635759" y1="18.0940216" x2="6.70951579" y2="6.4865902" id="Stroke-8" stroke="#FFFFFF"></line>
                <line x1="6.70909023" y1="18.0940216" x2="18.2652782" y2="6.4865902" id="Stroke-10" stroke="#FFFFFF"></line>
            </g>
        </g>
    </g>
</svg>